<?xml version="1.0" encoding="UTF-8"?>
<svg width="924px" height="900px" viewBox="0 0 924 900" version="1.1" xmlns="http://www.w3.org/2000/svg" xmlns:xlink="http://www.w3.org/1999/xlink">
    <!-- Generator: Sketch 48.2 (47327) - http://www.bohemiancoding.com/sketch -->
    <title>Group 15</title>
    <desc>Created with Sketch.</desc>
    <defs></defs>
    <g id="Page-1" stroke="none" stroke-width="1" fill="none" fill-rule="evenodd">
        <g id="Group-15" transform="translate(10.000000, 10.000000)" stroke="#4FCBE4" stroke-width="20">
            <path d="M204.321003,74.4104324 C165.402717,84.134523 141.078788,103.582704 131.349216,132.754976 C121.619645,161.927248 126.484431,186.237474 145.943574,205.685655" id="Path-19"></path>
            <path d="M291.887147,278.616335 C243.239289,259.168154 209.185789,259.168154 189.726646,278.616335 C170.267503,298.064516 170.267503,327.236788 189.726646,366.13315" id="Path-23"></path>
            <path d="M160.537931,541.166781 C102.160502,531.44269 63.2422153,555.752917 43.7830721,614.097461 C24.3239289,672.442004 48.6478579,716.200412 116.754859,745.372684" id="Path-27"></path>
            <path d="M160.537931,687.02814 C111.890073,725.924502 107.025287,764.820865 145.943574,803.717227 C184.86186,842.61359 218.915361,852.33768 248.104075,832.889499" id="Path-30"></path>
            <path d="M262.698433,745.372684 C223.780146,813.441318 243.239289,857.199725 321.075862,876.647907 C398.912435,896.096088 423.236364,823.165408 394.047649,657.855868" id="Path-32"></path>
            <path d="M262.698433,380.719286 C271.99894,363.665405 281.728511,353.941314 291.887147,351.547014 C335.513228,341.264738 384.774569,345.355099 394.047649,322.374743 C420.51237,256.790412 407.583859,85.2055325 408.642006,59.8242965 C409.969904,27.9726964 378.326832,-5.53185888 350.264577,1.47975292 C311.34629,11.2038435 306.854967,40.3761153 336.790607,88.9965683 C338.231579,93.7466194 337.858117,93.7466194 335.670219,88.9965683 C320.551483,56.1729193 311.102921,16.0658888 277.29279,16.0658888 C218.915361,16.0658888 178.417436,92.2798658 248.104075,161.927248 C274.584535,188.392791 292.939328,164.776926 306.481505,147.341112 C315.330106,135.948367 277.29279,176.983088 306.481505,205.685655 C326.077899,224.955666 345.537042,224.955666 364.858934,205.685655" id="Path-18"></path>
            <path d="M131.349216,161.927248 C92.43093,161.927248 68.107001,176.513384 58.3774295,205.685655 C48.6478579,234.857927 48.6478579,259.168154 58.3774295,278.616335" id="Path-22"></path>
            <path d="M189.726646,278.616335 C121.619645,249.444063 68.107001,254.306108 29.1887147,293.202471 C-9.72957158,332.098833 -9.72957158,380.719286 29.1887147,439.06383" id="Path-24"></path>
            <path d="M322.741404,497.408373 C344.471699,584.925189 316.843181,623.821551 239.85585,614.097461 C162.868519,604.37337 147.036447,555.752917 192.359634,468.236102" id="Path-26"></path>
            <path d="M58.3774295,409.891558 C19.4591432,429.339739 0,458.512011 0,497.408373 C7.94352579e-16,536.304736 19.4591432,565.477008 58.3774295,584.925189" id="Path-28"></path>
            <path d="M116.754859,351.547014 C77.8365726,361.271105 58.3774295,380.719286 58.3774295,409.891558 C58.3774295,439.06383 77.8365726,458.512011 116.754859,468.236102" id="Path-29"></path>
            <path d="M262.698433,672.442004 C240.307496,701.614276 240.307496,725.924502 262.698433,745.372684 C285.089369,764.820865 309.413298,759.958819 335.670219,730.786548" id="Path-31"></path>
            <path d="M306.481505,657.855868 C384.318077,687.02814 418.371578,643.269732 408.642006,526.580645 C404.265472,474.091819 416.955826,438.769977 408.642006,409.891558 C401.862793,386.343663 382.40365,366.895482 350.264577,351.547014" id="Path-33"></path>
            <path d="M777.515569,74.4104324 C738.597283,84.134523 714.273354,103.582704 704.543783,132.754976 C694.814211,161.927248 699.678997,186.237474 719.13814,205.685655" id="Path-19" transform="translate(738.597283, 140.048044) scale(-1, 1) translate(-738.597283, -140.048044) "></path>
            <path d="M714.273354,278.616335 C665.625496,259.168154 631.571996,259.168154 612.112853,278.616335 C592.65371,298.064516 592.65371,327.236788 612.112853,366.13315" id="Path-23" transform="translate(655.895925, 315.081675) scale(-1, 1) translate(-655.895925, -315.081675) "></path>
            <path d="M866.703309,541.166781 C808.325879,531.44269 769.407593,555.752917 749.94845,614.097461 C730.489307,672.442004 754.813236,716.200412 822.920237,745.372684" id="Path-27" transform="translate(805.082689, 642.227865) scale(-1, 1) translate(-805.082689, -642.227865) "></path>
            <path d="M696.435806,687.02814 C647.787948,725.924502 642.923163,764.820865 681.841449,803.717227 C720.759735,842.61359 754.813236,852.33768 784.001951,832.889499" id="Path-30" transform="translate(719.948938, 764.820865) scale(-1, 1) translate(-719.948938, -764.820865) "></path>
            <path d="M517.470656,745.372684 C478.55237,813.441318 498.011513,857.199725 575.848086,876.647907 C653.684658,896.096088 678.008587,823.165408 648.819873,657.855868" id="Path-32" transform="translate(579.386112, 768.787270) scale(-1, 1) translate(-579.386112, -768.787270) "></path>
            <path d="M544.492591,380.719286 C553.793098,363.665405 563.522669,353.941314 573.681305,351.547014 C617.307386,341.264738 666.568727,345.355099 675.841807,322.374743 C702.306528,256.790412 689.378017,85.2055325 690.436164,59.8242965 C691.764062,27.9726964 660.12099,-5.53185888 632.058735,1.47975292 C593.140448,11.2038435 588.649125,40.3761153 618.584765,88.9965683 C620.025737,93.7466194 619.652275,93.7466194 617.464377,88.9965683 C602.345641,56.1729193 592.897079,16.0658888 559.086948,16.0658888 C500.709518,16.0658888 460.211594,92.2798658 529.898233,161.927248 C556.378693,188.392791 574.733486,164.776926 588.275663,147.341112 C597.124264,135.948367 559.086948,176.983088 588.275663,205.685655 C607.872057,224.955666 627.3312,224.955666 646.653092,205.685655" id="Path-18" transform="translate(592.897079, 190.629816) scale(-1, 1) translate(-592.897079, -190.629816) "></path>
            <path d="M852.919749,161.927248 C814.001463,161.927248 789.677534,176.513384 779.947962,205.685655 C770.218391,234.857927 770.218391,259.168154 779.947962,278.616335" id="Path-22" transform="translate(812.785266, 220.271791) scale(-1, 1) translate(-812.785266, -220.271791) "></path>
            <path d="M904,278.616335 C835.892999,249.444063 782.380355,254.306108 743.462069,293.202471 C704.543783,332.098833 704.543783,380.719286 743.462069,439.06383" id="Path-24" transform="translate(809.136677, 349.463281) scale(-1, 1) translate(-809.136677, -349.463281) "></path>
            <path d="M729.657598,497.408373 C751.387894,584.925189 723.759376,623.821551 646.772045,614.097461 C569.784714,604.37337 553.952642,555.752917 599.275828,468.236102" id="Path-26" transform="translate(655.458097, 541.896088) scale(-1, 1) translate(-655.458097, -541.896088) "></path>
            <path d="M904,409.891558 C865.081714,429.339739 845.622571,458.512011 845.622571,497.408373 C845.622571,536.304736 865.081714,565.477008 904,584.925189" id="Path-28" transform="translate(874.811285, 497.408373) scale(-1, 1) translate(-874.811285, -497.408373) "></path>
            <path d="M845.622571,351.547014 C806.704284,361.271105 787.245141,380.719286 787.245141,409.891558 C787.245141,439.06383 806.704284,458.512011 845.622571,468.236102" id="Path-29" transform="translate(816.433856, 409.891558) scale(-1, 1) translate(-816.433856, -409.891558) "></path>
            <path d="M585.122983,672.442004 C562.732046,701.614276 562.732046,725.924502 585.122983,745.372684 C607.513919,764.820865 631.837848,759.958819 658.09477,730.786548" id="Path-31" transform="translate(613.212275, 714.741798) scale(-1, 1) translate(-613.212275, -714.741798) "></path>
            <path d="M492.463642,657.855868 C570.300215,687.02814 604.353715,643.269732 594.624144,526.580645 C590.247609,474.091819 602.937964,438.769977 594.624144,409.891558 C587.84493,386.343663 568.385787,366.895482 536.246714,351.547014" id="Path-33" transform="translate(544.991069, 509.077282) scale(-1, 1) translate(-544.991069, -509.077282) "></path>
        </g>
    </g>
</svg>