<?xml version="1.0" encoding="utf-8"?>
<!-- Generator: Adobe Illustrator 19.2.0, SVG Export Plug-In . SVG Version: 6.00 Build 0)  -->
<svg version="1.1" id="Layer_1" xmlns="http://www.w3.org/2000/svg" xmlns:xlink="http://www.w3.org/1999/xlink" x="0px" y="0px"
	 viewBox="0 0 512 512" style="enable-background:new 0 0 512 512;" xml:space="preserve">
<style type="text/css">
	.st0{fill:#FFAD47;}
</style>
<g transform="translate(1 1)">
	<g>
		<g>
			<path class="st0" d="M255-1C114.2-1-1,114.2-1,255s115.2,256,256,256s256-115.2,256-256S395.8-1,255-1z M255,493.9
				C123.6,493.9,16.1,386.4,16.1,255S123.6,16.1,255,16.1S493.9,123.6,493.9,255S386.4,493.9,255,493.9z"/>
			<path class="st0" d="M255,50.2C142.4,50.2,50.2,142.4,50.2,255S142.4,459.8,255,459.8S459.8,367.6,459.8,255S367.6,50.2,255,50.2
				z M246.5,331.3v111.2c-27.8-1.3-54.1-8.6-77.5-20.8l55.5-96.2C231.3,328.5,238.7,330.5,246.5,331.3z M263.5,331.3
				c7.6-0.8,14.8-2.7,21.6-5.6l55.5,96.2c-23.3,12.1-49.5,19.3-77.1,20.6V331.3z M255,314.7c-33.3,0-59.7-26.5-59.7-59.7
				s26.5-59.7,59.7-59.7s59.7,26.5,59.7,59.7S288.3,314.7,255,314.7z M178.7,246.5H67.5c1.3-27.7,8.6-53.9,20.7-77.2l96.2,55.5
				C181.4,231.5,179.5,238.8,178.7,246.5z M178.7,263.5c0.8,7.6,2.7,14.9,5.6,21.6l-96.2,55.5c-12.1-23.3-19.4-49.5-20.6-77.1
				L178.7,263.5L178.7,263.5z M246.5,178.7c-8.2,0.9-16,3.1-23.3,6.3l4.9-2.8l-55.3-95.8c22.5-11,47.4-17.7,73.7-18.9L246.5,178.7
				L246.5,178.7z M263.5,178.7V67.5c26.2,1.2,51,7.8,73.4,18.7l-55.5,96.1l2.9,1.7C277.8,181.3,270.8,179.5,263.5,178.7z
				 M331.3,263.5h111.2c-1.3,27.8-8.6,54.1-20.8,77.5l-96.1-55.5C328.5,278.7,330.5,271.3,331.3,263.5z M331.3,246.5
				c-0.8-7.7-2.8-15.1-5.8-22l96.2-55.5c12.2,23.4,19.5,49.7,20.8,77.5L331.3,246.5L331.3,246.5z M413.2,154.2l-96.1,55.4
				c-5.6-7.7-12.6-14.2-20.6-19.4l55.4-95.9C376.6,109.4,397.6,129.9,413.2,154.2z M157.8,94.6l55.4,95.9
				c-8,5.2-14.9,11.7-20.5,19.4l-96-55.4C112.2,130.1,133.1,109.6,157.8,94.6z M96.6,355.5l96-55.4c4.7,6.5,10.4,12.3,17,17.1
				l-55.4,96.1C131.1,398.3,111.4,378.6,96.6,355.5z M355.4,413.4l-55.4-96c6.6-4.7,12.4-10.5,17.1-17l96.1,55.5
				C398.3,378.9,378.6,398.6,355.4,413.4z"/>
			<path class="st0" d="M255,220.9c-18.8,0-34.1,15.4-34.1,34.1s15.4,34.1,34.1,34.1s34.1-15.4,34.1-34.1S273.8,220.9,255,220.9z
				 M255,272.1c-9.4,0-17.1-7.7-17.1-17.1s7.7-17.1,17.1-17.1c9.4,0,17.1,7.7,17.1,17.1S264.4,272.1,255,272.1z"/>
		</g>
	</g>
</g>
</svg>
